<svg xmlns="http://www.w3.org/2000/svg" width="32" height="32" viewBox="0 0 32 32">
  <g fill="none">
    <path fill="#4E342E" d="M17.8977778,12.8562162 C15.2337778,10.2642162 12.3324444,8.66075676 10.5555556,8.64864865 C10.0337778,8.64518919 9.60888889,8.77837838 9.31555556,9.06378378 C8.02222222,10.3221622 9.76711111,14.060973 13.2133333,17.4140541 C16.6595556,20.7671351 20.5013333,22.4648649 21.7955556,21.2064865 C23.0888889,19.9481081 21.344,16.2092973 17.8977778,12.8562162 Z"/>
    <polygon fill="#FBC02D" points="26.222 19.892 25.333 20.757 24.889 21.189 25.458 21.743 26.222 22.486 27.111 21.622 27.556 21.189 26.889 20.541"/>
    <polygon fill="#1976D2" points="9.333 29.405 8.444 30.27 8 30.703 8.624 31.31 9.333 32 10.111 31.243 10.667 30.703 10.223 30.27"/>
    <polygon fill="#FBC02D" points="6.667 .865 5.755 1.752 5.333 2.162 5.708 2.527 6.667 3.459 7.349 2.795 8 2.162 7.263 1.445"/>
    <polygon fill="#1976D2" points="16.444 .865 15.359 1.921 15.111 2.162 15.454 2.496 16.444 3.459 17.778 2.162"/>
    <polygon fill="#FF8F00" points="18.222 6.054 17.356 6.896 16.889 7.351 17.493 7.939 18.222 8.649 18.999 7.893 19.556 7.351 18.943 6.755"/>
    <polygon fill="#F50057" points="30.667 10.378 30.069 10.96 29.333 11.676 29.834 12.163 30.667 12.973 31.486 12.176 32 11.676 31.484 11.174"/>
    <polygon fill="#1976D2" points="1.333 16.432 .417 17.324 0 17.73 .5 18.217 1.333 19.027 2.195 18.189 2.667 17.73 2.181 17.258"/>
    <polygon fill="#FF8F00" points="30.222 22.486 29.084 23.594 28.444 24.216 29.042 24.797 30.222 25.946 31.472 24.73 32 24.216 31.57 23.798"/>
    <polygon fill="#F50057" points="16 25.946 14.778 27.135 14.222 27.676 14.694 28.135 16 29.405 17.222 28.216 17.778 27.676 17.361 27.27"/>
    <path fill="#F50057" d="M12.4444444 12.972973L12.4444444 12.972973C12.5208889 12.9063784 13.3333333 10.3783784 13.3333333 7.78378378 13.3333333 6.68627027 13.0275556 5.83697297 12.424 5.25837838 11.4391111 4.31481081 9.93244444 4.32951351 9.90755556 4.32432432L9.77777778 4.32432432 9.77777778 2.59459459 9.88888889 2.59459459C9.95555556 2.59632432 12.1191111 2.55394595 13.6542222 4.01037838 14.6213333 4.92713514 15.1111111 6.19675676 15.1111111 7.78378378 15.1111111 11.2432432 12.4444444 12.972973 12.4444444 12.972973zM32 32L30.2222222 32 30.2222222 31.8918919C30.1804444 30.6482162 29.7404444 29.4054054 29.4444444 29.4054054 28.7964444 29.4054054 28.1591111 30.1647568 27.6471111 30.7753514 27.096 31.4326486 26.6204444 32 25.8888889 32 24.664 32 24.392 30.5850811 24.1288889 29.2177297 24.0844444 28.9868108 24.0275556 28.6901622 23.9626667 28.4082162 23.9173333 28.4981622 23.872 28.5855135 23.8311111 28.6676757 23 30.3065946 22.1404444 32 20.7777778 32 19.7271111 32 18.6666667 31.1974054 18.6666667 29.4054054L20.4444444 29.4054054C20.4444444 29.9148108 20.5813333 30.2702703 20.7777778 30.2702703 21.1182222 30.1076757 21.9022222 28.5621622 22.2373333 27.9022703 22.8773333 26.6404324 23.2293333 25.9459459 24 25.9459459 25.3084444 25.9459459 25.5964444 27.4473514 25.8764444 28.8994595 25.9315556 29.184 26.0062222 29.5766486 26.088 29.8983784 26.1511111 29.8248649 26.2133333 29.7504865 26.2702222 29.6821622 26.9804444 28.8354595 27.9528889 27.6756757 29.4444444 27.6756757 31.752 27.6756757 31.9777778 31.1662703 32 31.8659459L32 32z"/>
    <path fill="#FFB300" d="M13.2133333,17.4140541 C10.1128889,14.3974054 8.39733333,11.0754595 9.02488889,9.5212973 L9.01777778,9.51351351 L0,30.2702703 L21.3333333,21.4962162 L21.3271111,21.4884324 C19.7306667,22.0998919 16.3146667,20.4315676 13.2133333,17.4140541 Z"/>
    <path fill="#FF8F00" d="M31.1111111,0.86572973 C29.3182222,0.89427027 28.0728889,1.27048649 27.3484444,1.97016216 C26.9368889,2.36713514 26.704,2.86875676 26.6711111,3.42659459 C26.6702222,3.43697297 26.6666667,3.49405405 26.6666667,3.51135135 C26.6826667,4.5907027 27.2266667,5.52562162 27.4177778,5.83783784 C27.4533333,5.89664865 27.5155556,6.016 27.5288889,6.05924324 C27.0515556,6.03762162 26.1893333,5.86551351 25.6488889,5.75308108 C24.0586667,5.42356757 22.688,5.13816216 21.8684444,5.78162162 C21.5235556,6.05405405 21.3333333,6.45708108 21.3333333,6.91891892 C21.3333333,7.91610811 21.9964444,8.79481081 22.5288889,9.50140541 C22.7493333,9.79372973 23.0826667,10.2348108 23.1111111,10.3783784 C23.1111111,10.8272432 22.7884444,10.9958919 21.0826667,11.4456216 C19.1662222,11.9507027 16,12.972973 14.2222222,15.5675676 C16.8888889,13.8378378 19.6462222,13.6164324 21.5466667,13.1156757 C23.1902222,12.6832432 24.8888889,12.2352432 24.8888889,10.3783784 C24.8888889,9.70637838 24.4391111,9.10962162 23.9617778,8.47740541 C23.6391111,8.0492973 23.2497778,7.53297297 23.1404444,7.12216216 C23.6302222,7.10832432 24.6364444,7.31156757 25.2773333,7.44475676 C26.1484444,7.62551351 26.9493333,7.77945946 27.5911111,7.78205405 L27.5911111,7.78378378 C28.352,7.78378378 28.8844444,7.40237838 29.1084444,7.07459459 L29.1946667,6.91545946 C29.296,6.66983784 29.3333333,6.42854054 29.3333333,6.20540541 C29.3333333,5.60086486 29.056,5.12691892 28.9973333,5.03351351 C28.8702222,4.84756757 28.4906667,4.20151351 28.4542222,3.56497297 C28.4533333,3.55113514 28.4533333,3.50702703 28.4542222,3.49924324 C28.4666667,3.38075676 28.5075556,3.28648649 28.6008889,3.19740541 C28.7511111,3.05210811 29.3991111,2.58248649 31.5555556,2.59459459 L32,2.59459459 L32,0.864864865 C32,0.864864865 31.2364444,0.863135135 31.1111111,0.86572973 Z"/>
    <path fill="#1976D2" d="M30.2222222,19.8918919 L32,19.8918919 C32,19.7431351 31.9911111,19.5987027 31.9751111,19.4594595 C31.6133333,16.4004324 27.4151111,15.5675676 24.8888889,15.5675676 C19.5555556,15.5675676 16.8888889,18.1621622 16.8888889,18.1621622 C16.8888889,18.1621622 19.5555556,17.2972973 24.8888889,17.2972973 C24.9422222,17.2972973 30.2222222,17.3682162 30.2222222,19.8918919 Z"/>
    <path fill="#FF8F00" d="M4.11111111,8.64864865 C2.07022222,8.64864865 1.8,8.34248649 1.79111111,8.33210811 C1.79111111,8.33210811 1.77777778,8.30183784 1.75822222,8.29924324 C1.86222222,8.13145946 2.46577778,7.85210811 2.79022222,7.70248649 C3.464,7.39113514 4.21511111,7.04259459 4.40088889,6.37837838 C4.42933333,6.27805405 4.44444444,6.16994595 4.44444444,6.05405405 C4.44444444,5.93902703 4.43377778,5.83178378 4.41422222,5.72972973 C4.24888889,4.8812973 3.44266667,4.47135135 2.83644444,4.16259459 C2.02933333,3.75178378 1.77777778,3.55632432 1.77777778,3.13513514 C1.77777778,2.63351351 2.52355556,2.59632432 2.67377778,2.59459459 L2.66666667,2.59459459 L2.66666667,0.864864865 C1.59466667,0.864864865 0,1.46940541 0,3.13513514 C0,4.67113514 1.25955556,5.312 2.01244444,5.69513514 C2.15022222,5.76605405 2.32888889,5.85686486 2.46577778,5.93124324 C2.32177778,6.00389189 2.15733333,6.08 2.02577778,6.14140541 C1.17155556,6.53664865 0,7.07891892 0,8.21621622 C0,10.3783784 2.67466667,10.3783784 4.11111111,10.3783784 C4.17155556,10.3783784 4.22577778,10.380973 4.27377778,10.3852973 C3.89155556,10.7874595 2.86577778,11.488 0.924444444,12.1582703 L1.51911111,13.7885405 C2.93333333,13.2998919 6.22222222,11.9697297 6.22222222,10.1621622 C6.22222222,9.43308108 5.56177778,8.64864865 4.11111111,8.64864865 Z"/>
  </g>
</svg>
