<svg xmlns="http://www.w3.org/2000/svg" xmlns:xlink="http://www.w3.org/1999/xlink" viewBox="0 0 201 45">
  <defs>
    <path id="logo-b" d="M114.688,350.928 C114.135997,351.720004 113.332005,352.116 112.276,352.116 C111.315995,352.116 110.320005,351.804003 109.288,351.18 C108.351995,350.627997 107.824001,350.088003 107.704,349.56 C107.656,349.367999 107.632,349.188001 107.632,349.02 C107.632,348.635998 107.793998,348.204002 108.118,347.724 C108.442002,347.243998 108.592,346.824002 108.568,346.464 L107.488,334.368 L101.296,348.336 C101.224,348.528001 101.188,348.755999 101.188,349.02 C101.188,349.212001 101.218,349.511998 101.278,349.92 C101.338,350.328002 101.368,350.639999 101.368,350.856 C101.368,351.408003 101.152002,351.827999 100.72,352.116 C100.095997,352.548002 99.3640042,352.764 98.524,352.764 C97.6839958,352.764 96.9220034,352.542002 96.238,352.098 C95.5539966,351.653998 95.1280008,351.072004 94.96,350.352 C94.9119998,350.135999 94.888,349.944001 94.888,349.776 C94.888,349.607999 94.9119998,349.404001 94.96,349.164 C95.0080002,348.923999 95.032,348.744001 95.032,348.624 C95.032,348.479999 95.0080002,348.336001 94.96,348.192 L89.776,334.368 L90.28,347.4 C90.3040001,347.736002 90.3879993,348.209997 90.532,348.822 C90.6760007,349.434003 90.748,349.883999 90.748,350.172 C90.748,351.060004 90.0880066,351.755997 88.768,352.26 C88.5999992,352.308 88.3960012,352.332 88.156,352.332 C87.4119963,352.332 86.644004,352.080003 85.852,351.576 C84.9399954,351.023997 84.3520013,350.304004 84.088,349.416 C84.0399998,349.271999 84.016,349.140001 84.016,349.02 C84.016,348.779999 84.1599986,348.510001 84.448,348.21 C84.7360014,347.909999 84.88,347.640001 84.88,347.4 L84.448,326.88 C84.448,326.543998 84.3280012,326.118003 84.088,325.602 C83.8479988,325.085997 83.728,324.696001 83.728,324.432 C83.728,324.023998 83.9439978,323.586002 84.376,323.118 C84.8080022,322.649998 85.5639946,322.416 86.644,322.416 C88.2280079,322.416 89.4879953,322.799996 90.424,323.568 C90.9520026,324.000002 91.216,324.455998 91.216,324.936 C91.216,325.008 91.2040001,325.115999 91.18,325.26 L91.18,325.584 C91.18,325.800001 91.2159996,325.991999 91.288,326.16 L98.416,343.44 L106.408,325.08 C106.504,324.863999 106.552,324.612001 106.552,324.324 C106.552,324.228 106.54,324.084001 106.516,323.892 L106.516,323.46 C106.516,322.907997 106.767997,322.440002 107.272,322.056 C107.680002,321.743998 108.219997,321.588 108.892,321.588 C109.924005,321.588 110.925995,321.899997 111.898,322.524 C112.870005,323.148003 113.344,323.855996 113.32,324.648 C113.296,325.032002 113.116002,325.349999 112.78,325.602 C112.443998,325.854001 112.288,326.087999 112.312,326.304 L113.824,347.544 C113.848,347.784001 114.039998,348.197997 114.4,348.786 C114.760002,349.374003 114.94,349.847998 114.94,350.208 C114.94,350.448001 114.856001,350.687999 114.688,350.928 Z M133.192,349.488 C132.831998,350.664006 131.944007,351.252 130.528,351.252 C130.047998,351.252 129.664001,351.168001 129.376,351 C128.991998,350.735999 128.728001,350.208004 128.584,349.416 C128.295999,348.047993 128.008001,346.980004 127.72,346.212 C127.648,347.532007 126.928007,348.869993 125.56,350.226 C124.191993,351.582007 122.812007,352.26 121.42,352.26 C119.667991,352.26 118.456003,351.096012 117.784,348.768 C117.543999,347.903996 117.424,347.088004 117.424,346.32 C117.424,344.087989 118.563989,342.180008 120.844,340.596 C122.716009,339.491994 124.599991,338.400005 126.496,337.32 C126.592,336.911998 126.64,336.516002 126.64,336.132 C126.64,335.387996 126.436002,334.950001 126.028,334.818 C125.619998,334.685999 125.272001,334.62 124.984,334.62 C124.479997,334.62 124.066002,334.781998 123.742,335.106 L122.824,336.024 C122.535999,336.216001 122.164002,336.659997 121.708,337.356 C121.347998,337.908003 120.952002,338.208 120.52,338.256 C119.895997,338.328 119.332003,338.112003 118.828,337.608 C118.323997,337.103997 118.072,336.516003 118.072,335.844 C118.072,335.459998 118.167999,335.112002 118.36,334.8 C118.912003,333.887995 119.739994,333.096003 120.844,332.424 C122.524008,331.415995 124.623987,330.912 127.144,330.912 C128.752008,330.912 129.855997,331.679992 130.456,333.216 C130.840002,334.248005 131.127999,336.179986 131.32,339.012 C131.536001,342.444017 131.799998,344.951992 132.112,346.536 C132.16,346.848002 132.363998,347.243998 132.724,347.724 C133.084002,348.204002 133.264,348.623998 133.264,348.984 C133.264,349.152001 133.24,349.319999 133.192,349.488 Z M126.928,340.632 C126.207996,341.016002 125.494004,341.411998 124.786,341.82 C124.077996,342.228002 123.424003,342.767997 122.824,343.44 C121.959996,344.424005 121.528,345.263997 121.528,345.96 C121.528,346.536003 121.743998,347.135997 122.176,347.76 C122.416001,348.096002 122.679999,348.264 122.968,348.264 C123.592003,348.264 124.269996,347.568007 125.002,346.176 C125.734004,344.783993 126.375997,342.936012 126.928,340.632 Z M148.024,331.884 C148.072,333.94801 148.179999,337.343976 148.348,342.072 C148.444,345.408017 148.492,347.795993 148.492,349.236 C148.492,352.404016 148.240003,354.563994 147.736,355.716 C147.231997,356.868006 146.212008,357.503999 144.676,357.624 C142.75599,357.792001 141.064007,357.288006 139.6,356.112 C138.879996,355.895999 138.424001,355.728001 138.232,355.608 C137.823998,355.367999 137.560001,354.960003 137.44,354.384 C137.223999,353.255994 138.11199,352.692 140.104,352.692 C140.608003,352.692 141.087998,352.751999 141.544,352.872 C141.880002,352.944 142.251998,353.225998 142.66,353.718 C143.068002,354.210002 143.451998,354.468 143.812,354.492 C144.508003,354.54 144.856,353.55601 144.856,351.54 C144.856,350.675996 144.796001,349.27201 144.676,347.328 C143.811996,348.792007 143.188002,349.739998 142.804,350.172 C142.011996,350.988004 141.088005,351.396 140.032,351.396 C138.543993,351.396 137.344005,350.36401 136.432,348.3 C135.591996,346.403991 135.172,344.100014 135.172,341.388 C135.172,338.603986 135.615996,336.25201 136.504,334.332 C137.512005,332.171989 138.903991,331.068 140.68,331.02 C141.640005,330.996 142.347998,331.187998 142.804,331.596 C143.260002,332.004002 143.703998,332.423998 144.136,332.856 C143.823998,331.991996 143.895998,331.344002 144.352,330.912 C144.616001,330.647999 145.011997,330.516 145.54,330.516 C146.044003,330.516 146.547997,330.647999 147.052,330.912 C147.556003,331.176001 147.879999,331.499998 148.024,331.884 Z M143.704,341.064 C143.8,339.671993 143.632002,338.352006 143.2,337.104 C142.719998,335.711993 142.096004,335.016 141.328,335.016 C140.703997,335.016 140.152002,335.711993 139.672,337.104 C139.239998,338.352006 139,339.671993 138.952,341.064 C138.904,342.528007 139.011999,343.847994 139.276,345.024 C139.612002,346.416007 140.079997,347.112 140.68,347.112 C141.208003,347.112 141.819997,346.434007 142.516,345.078 C143.212003,343.721993 143.608,342.384007 143.704,341.064 Z M156.988,324 C157.06,324.072 157.096,324.191999 157.096,324.36 C157.096,324.576001 157.024001,324.947997 156.88,325.476 C156.711999,326.124003 156.604,326.567999 156.556,326.808 C156.508,327.048001 156.532,327.575996 156.628,328.392 C156.628,328.896003 156.478002,329.225999 156.178,329.382 C155.877998,329.538001 155.500002,329.616 155.044,329.616 C154.395997,329.616 153.736003,329.484001 153.064,329.22 C152.247996,328.883998 151.84,328.440003 151.84,327.888 C151.84,327.719999 151.911999,327.486001 152.056,327.186 C152.200001,326.885999 152.284,326.640001 152.308,326.448 C152.356,326.255999 152.356,325.776004 152.308,325.008 C152.26,324.407997 152.379999,324.000001 152.668,323.784 C153.052002,323.495999 153.735995,323.352 154.72,323.352 C155.800005,323.352 156.555998,323.567998 156.988,324 Z M157.456,332.784 C157.456,333.120002 157.270002,333.641996 156.898,334.35 C156.525998,335.058004 156.34,335.639998 156.34,336.096 L156.34,346.68 C156.34,347.160002 156.471999,347.837996 156.736,348.714 C157.000001,349.590004 157.132,350.195998 157.132,350.532 C157.132,351.012002 156.940002,351.371999 156.556,351.612 C155.955997,351.996002 155.308003,352.188 154.612,352.188 C153.699995,352.188 153.052002,351.876003 152.668,351.252 C152.163997,350.483996 151.912,348.192019 151.912,344.376 C151.912,343.463995 151.93,342.04201 151.966,340.11 C152.002,338.17799 152.02,336.768004 152.02,335.88 C152.02,335.543998 151.984,335.106003 151.912,334.566 C151.84,334.025997 151.804,333.636001 151.804,333.396 C151.804,332.603996 152.091997,331.920003 152.668,331.344 C152.908001,331.103999 153.351997,330.984 154,330.984 C154.648003,330.984 155.295997,331.085999 155.944,331.29 C156.592003,331.494001 157.005999,331.727999 157.186,331.992 C157.366001,332.256001 157.456,332.519999 157.456,332.784 Z M172.18,345.024 C172.156,345.552003 171.928002,346.091997 171.496,346.644 C170.823997,347.436004 170.392001,348.035998 170.2,348.444 C168.687992,350.748012 167.128008,351.9 165.52,351.9 C163.623991,351.9 162.148005,350.94001 161.092,349.02 C160.155995,347.267991 159.688,345.060013 159.688,342.396 C159.688,339.347985 160.263994,336.696011 161.416,334.44 C162.688006,331.943988 164.33199,330.696 166.348,330.696 C167.932008,330.696 169.215995,331.571991 170.2,333.324 C171.016004,334.812007 171.424,336.431991 171.424,338.184 C171.424,338.664002 171.388,339.083998 171.316,339.444 C171.147999,340.260004 170.464006,340.668 169.264,340.668 C168.327995,340.668 167.608003,340.404003 167.104,339.876 C166.863999,339.611999 166.744,339.000005 166.744,338.04 C166.744,337.799999 166.756,337.452002 166.78,336.996 L166.78,335.952 C166.78,334.871995 166.588002,334.332 166.204,334.332 C165.795998,334.332 165.364002,335.513988 164.908,337.878 C164.451998,340.242012 164.224,342.45599 164.224,344.52 C164.224,346.920012 164.583996,348.12 165.304,348.12 C166.240005,348.12 166.935998,347.364008 167.392,345.852 C167.584001,345.635999 167.692,345.204003 167.716,344.556 C167.716,343.979997 167.859999,343.602001 168.148,343.422 C168.436001,343.241999 168.855997,343.152 169.408,343.152 C170.128004,343.152 170.751997,343.307998 171.28,343.62 C171.904003,343.980002 172.204,344.447997 172.18,345.024 Z M197.344,339.048 C197.248,340.96801 197.271999,343.727982 197.416,347.328 C197.416,347.568001 197.499999,347.903998 197.668,348.336 C197.836001,348.768002 197.92,349.079999 197.92,349.272 C197.92,349.752002 197.512004,350.159998 196.696,350.496 C196.527999,350.568 196.312001,350.604 196.048,350.604 C195.255996,350.604 194.416004,350.388002 193.528,349.956 C192.471995,349.451997 191.944,348.852003 191.944,348.156 C191.944,347.843998 192.057999,347.436003 192.286,346.932 C192.514001,346.427997 192.735999,345.936002 192.952,345.456 L192.952,339.264 L188.128,340.272 C188.128,341.448006 188.14,343.103989 188.164,345.24 C188.188,347.376011 188.2,348.456 188.2,348.48 C188.2,348.768001 188.277999,349.211997 188.434,349.812 C188.590001,350.412003 188.668,350.843999 188.668,351.108 C188.668,351.588002 188.506002,351.977999 188.182,352.278 C187.857998,352.578002 187.420003,352.728 186.868,352.728 C186.291997,352.728 185.704003,352.572002 185.104,352.26 C184.503997,351.947998 184.102001,351.630002 183.898,351.306 C183.693999,350.981998 183.592,350.748001 183.592,350.604 C183.592,350.556 183.687999,350.304002 183.88,349.848 C183.88,348.815995 183.868,347.136012 183.844,344.808 C183.82,342.479988 183.808,340.992003 183.808,340.344 C183.784,340.272 183.496003,339.756005 182.944,338.796 C182.607998,338.243997 182.488,337.728002 182.584,337.248 C182.632,336.983999 182.775999,336.768001 183.016,336.6 L183.736,336.096 C183.664,330.383971 183.687999,326.52001 183.808,324.504 C183.591999,324.071998 183.484,323.724001 183.484,323.46 C183.484,322.931997 183.855996,322.488002 184.6,322.128 C184.912002,321.983999 185.355997,321.912 185.932,321.912 C187.804009,321.912 188.943998,322.415995 189.352,323.424 C189.424,323.616001 189.46,323.795999 189.46,323.964 C189.46,324.300002 189.250002,324.797997 188.83,325.458 C188.409998,326.118003 188.2,326.663998 188.2,327.096 C188.055999,330.936019 188.032,333.791991 188.128,335.664 C190.480012,335.255998 192.039996,334.944001 192.808,334.728 C192.591999,331.799985 192.615999,328.36802 192.88,324.432 C192.663999,323.831997 192.556,323.340002 192.556,322.956 C192.556,322.235996 192.999996,321.648002 193.888,321.192 C194.080001,321.096 194.355998,321.048 194.716,321.048 C195.556004,321.048 196.371996,321.251998 197.164,321.66 C198.076005,322.140002 198.544,322.751996 198.568,323.496 C198.592,323.832002 198.382002,324.251997 197.938,324.756 C197.493998,325.260003 197.272,325.703998 197.272,326.088 C197.224,329.544017 197.248,332.447988 197.344,334.8 C197.728002,335.112002 198.117998,335.567997 198.514,336.168 C198.910002,336.768003 199.108,337.259998 199.108,337.644 C199.108,338.028002 198.904002,338.315999 198.496,338.508 C198.087998,338.700001 197.704002,338.879999 197.344,339.048 Z M214.732,347.22 C214.539999,348.132005 213.892006,349.103995 212.788,350.136 C212.619999,350.400001 211.960006,350.747998 210.808,351.18 C209.487993,351.684003 208.348005,351.9 207.388,351.828 C205.587991,351.707999 204.172005,350.67601 203.14,348.732 C202.203995,346.931991 201.736,344.724013 201.736,342.108 C201.736,339.275986 202.263995,336.792011 203.32,334.656 C204.496006,332.303988 206.06799,330.984001 208.036,330.696 C208.420002,330.648 208.791998,330.624 209.152,330.624 C212.008014,330.624 213.579999,332.375982 213.868,335.88 C214.012001,337.488008 213.376007,339.239991 211.96,341.136 C210.423992,343.22401 208.456012,344.687996 206.056,345.528 C206.320001,346.488005 206.523999,347.111999 206.668,347.4 C207.004002,348.000003 207.459997,348.3 208.036,348.3 C208.588003,348.3 209.175997,348.084002 209.8,347.652 C210.328003,347.291998 210.687999,346.944002 210.88,346.608 C210.976,346.56 211.072,346.290002 211.168,345.798 C211.264,345.305998 211.515998,344.952001 211.924,344.736 C212.068001,344.664 212.235999,344.628 212.428,344.628 C213.004003,344.628 213.561997,344.909997 214.102,345.474 C214.642003,346.038003 214.852001,346.619997 214.732,347.22 Z M209.08,334.548 C208.119995,334.548 207.340003,335.231993 206.74,336.6 C205.947996,338.424009 205.623999,340.223991 205.768,342 C206.896006,341.639998 207.939995,340.800007 208.9,339.48 C209.860005,338.159993 210.34,336.984005 210.34,335.952 C210.34,335.015995 209.920004,334.548 209.08,334.548 Z M233.452,349.488 C233.091998,350.664006 232.204007,351.252 230.788,351.252 C230.307998,351.252 229.924001,351.168001 229.636,351 C229.251998,350.735999 228.988001,350.208004 228.844,349.416 C228.555999,348.047993 228.268001,346.980004 227.98,346.212 C227.908,347.532007 227.188007,348.869993 225.82,350.226 C224.451993,351.582007 223.072007,352.26 221.68,352.26 C219.927991,352.26 218.716003,351.096012 218.044,348.768 C217.803999,347.903996 217.684,347.088004 217.684,346.32 C217.684,344.087989 218.823989,342.180008 221.104,340.596 C222.976009,339.491994 224.859991,338.400005 226.756,337.32 C226.852,336.911998 226.9,336.516002 226.9,336.132 C226.9,335.387996 226.696002,334.950001 226.288,334.818 C225.879998,334.685999 225.532001,334.62 225.244,334.62 C224.739997,334.62 224.326002,334.781998 224.002,335.106 L223.084,336.024 C222.795999,336.216001 222.424002,336.659997 221.968,337.356 C221.607998,337.908003 221.212002,338.208 220.78,338.256 C220.155997,338.328 219.592003,338.112003 219.088,337.608 C218.583997,337.103997 218.332,336.516003 218.332,335.844 C218.332,335.459998 218.427999,335.112002 218.62,334.8 C219.172003,333.887995 219.999994,333.096003 221.104,332.424 C222.784008,331.415995 224.883987,330.912 227.404,330.912 C229.012008,330.912 230.115997,331.679992 230.716,333.216 C231.100002,334.248005 231.387999,336.179986 231.58,339.012 C231.796001,342.444017 232.059998,344.951992 232.372,346.536 C232.42,346.848002 232.623998,347.243998 232.984,347.724 C233.344002,348.204002 233.524,348.623998 233.524,348.984 C233.524,349.152001 233.5,349.319999 233.452,349.488 Z M227.188,340.632 C226.467996,341.016002 225.754004,341.411998 225.046,341.82 C224.337996,342.228002 223.684003,342.767997 223.084,343.44 C222.219996,344.424005 221.788,345.263997 221.788,345.96 C221.788,346.536003 222.003998,347.135997 222.436,347.76 C222.676001,348.096002 222.939999,348.264 223.228,348.264 C223.852003,348.264 224.529996,347.568007 225.262,346.176 C225.994004,344.783993 226.635997,342.936012 227.188,340.632 Z M241.912,351.18 C241.431998,352.092005 240.544006,352.548 239.248,352.548 C238.047994,352.548 237.208002,352.140004 236.728,351.324 C236.583999,351.083999 236.512,350.820001 236.512,350.532 C236.512,350.291999 236.595999,349.896003 236.764,349.344 C236.932001,348.791997 237.016,348.336002 237.016,347.976 L236.872,324.72 L236.872,322.776 C236.944,322.463998 237.279997,322.206001 237.88,322.002 C238.480003,321.797999 239.115997,321.696 239.788,321.696 C240.772005,321.696 241.395999,321.875998 241.66,322.236 C241.924001,322.596002 242.056,322.967998 242.056,323.352 C242.056,323.616001 241.960001,324.053997 241.768,324.666 C241.575999,325.278003 241.48,325.775998 241.48,326.16 L241.48,347.76 C241.48,348.120002 241.581999,348.593997 241.786,349.182 C241.990001,349.770003 242.092,350.195999 242.092,350.46 C242.092,350.724001 242.032001,350.963999 241.912,351.18 Z M257.536,334.656 C257.343999,334.656 257.044002,334.578001 256.636,334.422 C256.227998,334.265999 255.916001,334.188 255.7,334.188 C255.531999,334.188 255.364001,334.224 255.196,334.296 L253.864,334.98 L253.864,347.292 C253.864,347.748002 254.109998,348.335996 254.602,349.056 C255.094002,349.776004 255.292,350.351998 255.196,350.784 C255.075999,351.312003 254.722003,351.731998 254.134,352.044 C253.545997,352.356002 252.916003,352.512 252.244,352.512 C250.971994,352.512 250.096002,351.948006 249.616,350.82 C249.471999,350.483998 249.388,349.416009 249.364,347.616 C249.34,346.415994 249.352,344.544013 249.4,342 C249.448,339.119986 249.472,337.296004 249.472,336.528 C249.327999,336.576 249.088002,336.737999 248.752,337.014 C248.415998,337.290001 248.080002,337.428 247.744,337.428 C247.479999,337.428 247.144002,337.356001 246.736,337.212 C245.055992,336.635997 244.216,336.048003 244.216,335.448 C244.216,335.303999 244.252,335.148001 244.324,334.98 C244.492001,334.595998 244.803998,334.38 245.26,334.332 C245.956003,334.236 246.375999,334.152 246.52,334.08 C247.072003,333.863999 248.079993,333.348004 249.544,332.532 L249.544,329.4 C249.544,329.159999 249.478001,328.842002 249.346,328.446 C249.213999,328.049998 249.148,327.756001 249.148,327.564 C249.148,327.347999 249.207999,327.144001 249.328,326.952 C249.952003,325.991995 250.791995,325.512 251.848,325.512 C253.072006,325.512 253.935997,325.991995 254.44,326.952 C254.632001,327.336002 254.728,327.647999 254.728,327.888 C254.728,328.176001 254.584001,328.475998 254.296,328.788 C254.007999,329.100002 253.864,329.387999 253.864,329.652 L253.864,331.416 C254.296002,331.223999 254.775997,330.900002 255.304,330.444 C255.712002,330.107998 256.059999,329.94 256.348,329.94 C256.468001,329.94 256.599999,329.964 256.744,330.012 C258.256008,330.420002 259.012,331.331993 259.012,332.748 C259.012,333.204002 258.874001,333.635998 258.598,334.044 C258.321999,334.452002 257.968002,334.656 257.536,334.656 Z M275.86,347.976 C276.004001,348.576003 276.076,348.959999 276.076,349.128 C276.076,349.632003 275.782003,350.045998 275.194,350.37 C274.605997,350.694002 273.976003,350.856 273.304,350.856 C272.271995,350.856 271.612001,350.472004 271.324,349.704 C271.203999,349.391998 271.144,349.128001 271.144,348.912 C271.144,348.599998 271.281999,348.264002 271.558,347.904 C271.834001,347.543998 271.972,347.208002 271.972,346.896 C272.260001,345.647994 272.404,343.848012 272.404,341.496 C272.404,337.41598 272.116003,335.328 271.54,335.232 C271.107998,335.16 270.412005,335.843993 269.452,337.284 C268.443995,338.796008 267.604003,340.487991 266.932,342.36 C266.139996,344.568011 265.803999,346.511992 265.924,348.192 C265.852,348.336001 265.816,348.479999 265.816,348.624 C265.816,348.840001 265.911999,349.145998 266.104,349.542 C266.296001,349.938002 266.392,350.255999 266.392,350.496 C266.392,350.736001 266.308001,350.963999 266.14,351.18 C265.491997,352.116005 264.844003,352.584 264.196,352.584 C263.523997,352.584 262.876003,352.056005 262.252,351 C261.891998,350.375997 261.712,346.788033 261.712,340.236 C261.712,337.835988 261.771999,332.376043 261.892,323.856 C261.892,323.711999 261.88,323.490002 261.856,323.19 C261.832,322.889998 261.82,322.656001 261.82,322.488 C261.844,322.247999 261.915999,322.032001 262.036,321.84 C262.300001,321.335997 262.863996,321.084 263.728,321.084 C264.496004,321.084 265.197997,321.287998 265.834,321.696 C266.470003,322.104002 266.716001,322.583997 266.572,323.136 C266.548,323.280001 266.434001,323.447999 266.23,323.64 C266.025999,323.832001 265.924,324.023999 265.924,324.216 L265.924,335.808 C267.292007,332.735985 269.307987,331.104001 271.972,330.912 C273.412007,330.816 274.563996,331.895989 275.428,334.152 C276.220004,336.21601 276.616,338.747985 276.616,341.748 C276.616,344.052012 276.364003,346.127991 275.86,347.976 Z"/>
    <filter id="logo-a" width="106.7%" height="135.5%" x="-3.4%" y="-15%" filterUnits="objectBoundingBox">
      <feOffset dy="1" in="SourceAlpha" result="shadowOffsetOuter1"/>
      <feGaussianBlur in="shadowOffsetOuter1" result="shadowBlurOuter1" stdDeviation="2"/>
      <feColorMatrix in="shadowBlurOuter1" values="0 0 0 0 0   0 0 0 0 0   0 0 0 0 0  0 0 0 0.54 0"/>
    </filter>
  </defs>
  <g fill="none" fill-rule="evenodd" transform="translate(-80 -318)">
    <use fill="#000" filter="url(#logo-a)" xlink:href="#logo-b"/>
    <use fill="#FFF" xlink:href="#logo-b"/>
  </g>
</svg>
