<svg xmlns="http://www.w3.org/2000/svg" width="22" height="14" viewBox="0 0 22 14">
  <g fill="none" fill-rule="evenodd" transform="translate(-1 -5)">
    <polygon points="0 0 24 0 24 24 0 24"/>
    <path fill="#4267B2" fill-rule="nonzero" d="M16.0050083,11 C17.6677796,11 19,9.66 19,8 C19,6.34 17.6677796,5 16.0050083,5 C14.3422371,5 13,6.34 13,8 C13,9.66 14.3422371,11 16.0050083,11 Z M8.00500835,11 C9.66777963,11 11,9.66 11,8 C11,6.34 9.66777963,5 8.00500835,5 C6.34223706,5 5,6.34 5,8 C5,9.66 6.34223706,11 8.00500835,11 Z M8,13 C5.67,13 1,14.17 1,16.5 L1,19 L15,19 L15,16.5 C15,14.17 10.33,13 8,13 Z M15.9736512,13 C15.6825596,13 15.3513174,13.02 15,13.05 C16.1643664,13.89 16.9774153,15.02 16.9774153,16.5 L16.9774153,19 L23,19 L23,16.5 C23,14.17 18.3124216,13 15.9736512,13 Z"/>
  </g>
</svg>
