<svg xmlns="http://www.w3.org/2000/svg" xmlns:xlink="http://www.w3.org/1999/xlink" viewBox="0 0 24 24" version="1.1" width="100%" height="100%">
<g id="surface1">
<path style=" " d="M 20 15 L 16 15 L 13.4375 17.5625 C 10.714844 16.03125 8 13.457031 6.414063 10.664063 C 6.410156 10.644531 6.398438 10.617188 6.398438 10.601563 L 9 8 L 9 4 C 9 3.398438 8.601563 3 8 3 L 4 3 C 3.398438 3 3 3.398438 3 4 L 3 6 C 3 13.097656 11.941406 21 18 21 L 20 21 C 20.601563 21 21 20.601563 21 20 L 21 16 C 21 15.398438 20.601563 15 20 15 Z "></path>
</g>
</svg>