<svg xmlns="http://www.w3.org/2000/svg" width="32" height="32" viewBox="0 0 32 32">
  <g fill="none" fill-rule="evenodd">
    <path fill="#FFCA28" fill-rule="nonzero" d="M32,16 C32,24.8352 24.8352,32 16,32 C7.1648,32 0,24.8352 0,16 C0,7.1648 7.1648,0 16,0 C24.8352,0 32,7.1648 32,16 Z"/>
    <path fill="#FFF" fill-rule="nonzero" d="M4 20C4 18.4 6.4 16.8 6.4 16.8 6.4 18.4 7.2 19.2 7.2 20 7.2 20.884 6.484 21.6 5.6 21.6 4.716 21.6 4 20.884 4 20zM28.8 21.6C28.8 20 26.4 18.4 26.4 18.4 26.4 20 25.6 20.8 25.6 21.6 25.6 22.484 26.316 23.2 27.2 23.2 28.084 23.2 28.8 22.484 28.8 21.6z"/>
    <path fill="#C62828" fill-rule="nonzero" d="M20,25.6 C20,23.3904 18.2096,21.6 16,21.6 C13.7904,21.6 12,23.3904 12,25.6 L20,25.6 Z"/>
    <path stroke="#B76C09" stroke-width="2" d="M7.2 16C7.2 16 8.4 14.4 10.4 14.4 12.4 14.4 13.6 16 13.6 16M18.4 16C18.4 16 19.6 14.4 21.6 14.4 23.6 14.4 24.8 16 24.8 16"/>
  </g>
</svg>
